<mxfile host="app.diagrams.net" agent="Mozilla/5.0 (Windows NT 10.0; Win64; x64) AppleWebKit/537.36 (KHTML, like Gecko) Chrome/131.0.0.0 Safari/537.36" version="25.0.1">
  <diagram id="C5RBs43oDa-KdzZeNtuy" name="Page-1">
    <mxGraphModel dx="1961" dy="637" grid="1" gridSize="10" guides="1" tooltips="1" connect="1" arrows="1" fold="1" page="1" pageScale="1" pageWidth="827" pageHeight="1169" math="0" shadow="0">
      <root>
        <mxCell id="WIyWlLk6GJQsqaUBKTNV-0" />
        <mxCell id="WIyWlLk6GJQsqaUBKTNV-1" parent="WIyWlLk6GJQsqaUBKTNV-0" />
        <mxCell id="8v9jyTJZfa67smdRdlHb-10" value="" style="edgeStyle=orthogonalEdgeStyle;rounded=0;orthogonalLoop=1;jettySize=auto;html=1;" edge="1" parent="WIyWlLk6GJQsqaUBKTNV-1" source="WIyWlLk6GJQsqaUBKTNV-6" target="8v9jyTJZfa67smdRdlHb-2">
          <mxGeometry relative="1" as="geometry" />
        </mxCell>
        <mxCell id="WIyWlLk6GJQsqaUBKTNV-6" value="Login e senha corretos?" style="rhombus;whiteSpace=wrap;html=1;shadow=0;fontFamily=Helvetica;fontSize=12;align=center;strokeWidth=1;spacing=6;spacingTop=-4;" parent="WIyWlLk6GJQsqaUBKTNV-1" vertex="1">
          <mxGeometry x="170" y="170" width="150" height="110" as="geometry" />
        </mxCell>
        <mxCell id="8v9jyTJZfa67smdRdlHb-1" value="Inicio" style="strokeWidth=2;html=1;shape=mxgraph.flowchart.terminator;whiteSpace=wrap;" vertex="1" parent="WIyWlLk6GJQsqaUBKTNV-1">
          <mxGeometry x="165" y="20" width="160" height="40" as="geometry" />
        </mxCell>
        <mxCell id="8v9jyTJZfa67smdRdlHb-2" value="colocar login e senha" style="rounded=0;whiteSpace=wrap;html=1;" vertex="1" parent="WIyWlLk6GJQsqaUBKTNV-1">
          <mxGeometry x="185" y="100" width="120" height="40" as="geometry" />
        </mxCell>
        <mxCell id="8v9jyTJZfa67smdRdlHb-3" value="" style="endArrow=classic;html=1;rounded=0;exitX=1;exitY=0.5;exitDx=0;exitDy=0;entryX=1;entryY=0.5;entryDx=0;entryDy=0;entryPerimeter=0;" edge="1" parent="WIyWlLk6GJQsqaUBKTNV-1" source="WIyWlLk6GJQsqaUBKTNV-6" target="8v9jyTJZfa67smdRdlHb-1">
          <mxGeometry width="50" height="50" relative="1" as="geometry">
            <mxPoint x="320" y="300" as="sourcePoint" />
            <mxPoint x="390" y="265" as="targetPoint" />
            <Array as="points">
              <mxPoint x="380" y="225" />
              <mxPoint x="380" y="40" />
            </Array>
          </mxGeometry>
        </mxCell>
        <mxCell id="8v9jyTJZfa67smdRdlHb-4" value="" style="endArrow=classic;html=1;rounded=0;exitX=0.5;exitY=1;exitDx=0;exitDy=0;entryX=0.5;entryY=0;entryDx=0;entryDy=0;" edge="1" parent="WIyWlLk6GJQsqaUBKTNV-1" source="WIyWlLk6GJQsqaUBKTNV-6" target="8v9jyTJZfa67smdRdlHb-9">
          <mxGeometry width="50" height="50" relative="1" as="geometry">
            <mxPoint x="240" y="360" as="sourcePoint" />
            <mxPoint x="245" y="410" as="targetPoint" />
          </mxGeometry>
        </mxCell>
        <mxCell id="8v9jyTJZfa67smdRdlHb-5" value="" style="endArrow=classic;html=1;rounded=0;exitX=0.5;exitY=1;exitDx=0;exitDy=0;exitPerimeter=0;" edge="1" parent="WIyWlLk6GJQsqaUBKTNV-1" source="8v9jyTJZfa67smdRdlHb-1" target="8v9jyTJZfa67smdRdlHb-2">
          <mxGeometry width="50" height="50" relative="1" as="geometry">
            <mxPoint x="240" y="100" as="sourcePoint" />
            <mxPoint x="290" y="50" as="targetPoint" />
          </mxGeometry>
        </mxCell>
        <mxCell id="8v9jyTJZfa67smdRdlHb-6" value="" style="endArrow=classic;html=1;rounded=0;exitX=0.5;exitY=1;exitDx=0;exitDy=0;entryX=0.5;entryY=0;entryDx=0;entryDy=0;" edge="1" parent="WIyWlLk6GJQsqaUBKTNV-1" source="8v9jyTJZfa67smdRdlHb-2" target="WIyWlLk6GJQsqaUBKTNV-6">
          <mxGeometry width="50" height="50" relative="1" as="geometry">
            <mxPoint x="255" y="70" as="sourcePoint" />
            <mxPoint x="255" y="110" as="targetPoint" />
            <Array as="points" />
          </mxGeometry>
        </mxCell>
        <mxCell id="8v9jyTJZfa67smdRdlHb-7" value="não" style="text;html=1;align=center;verticalAlign=middle;whiteSpace=wrap;rounded=0;" vertex="1" parent="WIyWlLk6GJQsqaUBKTNV-1">
          <mxGeometry x="305" y="200" width="60" height="30" as="geometry" />
        </mxCell>
        <mxCell id="8v9jyTJZfa67smdRdlHb-8" value="sim" style="text;html=1;align=center;verticalAlign=middle;whiteSpace=wrap;rounded=0;" vertex="1" parent="WIyWlLk6GJQsqaUBKTNV-1">
          <mxGeometry x="240" y="310" width="60" height="30" as="geometry" />
        </mxCell>
        <mxCell id="8v9jyTJZfa67smdRdlHb-9" value="área de cadastros" style="rounded=0;whiteSpace=wrap;html=1;" vertex="1" parent="WIyWlLk6GJQsqaUBKTNV-1">
          <mxGeometry x="185" y="320" width="120" height="40" as="geometry" />
        </mxCell>
        <mxCell id="8v9jyTJZfa67smdRdlHb-11" value="" style="endArrow=classic;html=1;rounded=0;exitX=1;exitY=0.5;exitDx=0;exitDy=0;entryX=0;entryY=0;entryDx=0;entryDy=0;" edge="1" parent="WIyWlLk6GJQsqaUBKTNV-1" source="8v9jyTJZfa67smdRdlHb-9" target="8v9jyTJZfa67smdRdlHb-16">
          <mxGeometry width="50" height="50" relative="1" as="geometry">
            <mxPoint x="330" y="370" as="sourcePoint" />
            <mxPoint x="380" y="400" as="targetPoint" />
          </mxGeometry>
        </mxCell>
        <mxCell id="8v9jyTJZfa67smdRdlHb-12" value="" style="endArrow=classic;html=1;rounded=0;exitX=0;exitY=0.5;exitDx=0;exitDy=0;entryX=1;entryY=0;entryDx=0;entryDy=0;" edge="1" parent="WIyWlLk6GJQsqaUBKTNV-1" source="8v9jyTJZfa67smdRdlHb-9" target="8v9jyTJZfa67smdRdlHb-14">
          <mxGeometry width="50" height="50" relative="1" as="geometry">
            <mxPoint x="120" y="380" as="sourcePoint" />
            <mxPoint x="120" y="400" as="targetPoint" />
          </mxGeometry>
        </mxCell>
        <mxCell id="8v9jyTJZfa67smdRdlHb-13" value="" style="endArrow=classic;html=1;rounded=0;exitX=0.5;exitY=1;exitDx=0;exitDy=0;" edge="1" parent="WIyWlLk6GJQsqaUBKTNV-1" source="8v9jyTJZfa67smdRdlHb-9">
          <mxGeometry width="50" height="50" relative="1" as="geometry">
            <mxPoint x="240" y="450" as="sourcePoint" />
            <mxPoint x="245" y="420" as="targetPoint" />
          </mxGeometry>
        </mxCell>
        <mxCell id="8v9jyTJZfa67smdRdlHb-14" value="lista de produtos" style="rounded=0;whiteSpace=wrap;html=1;" vertex="1" parent="WIyWlLk6GJQsqaUBKTNV-1">
          <mxGeometry x="-40" y="395" width="120" height="40" as="geometry" />
        </mxCell>
        <mxCell id="8v9jyTJZfa67smdRdlHb-15" value="lista de fornecedores" style="rounded=0;whiteSpace=wrap;html=1;" vertex="1" parent="WIyWlLk6GJQsqaUBKTNV-1">
          <mxGeometry x="185" y="420" width="120" height="40" as="geometry" />
        </mxCell>
        <mxCell id="8v9jyTJZfa67smdRdlHb-16" value="lista de funcionários" style="rounded=0;whiteSpace=wrap;html=1;" vertex="1" parent="WIyWlLk6GJQsqaUBKTNV-1">
          <mxGeometry x="430" y="400" width="120" height="40" as="geometry" />
        </mxCell>
        <mxCell id="8v9jyTJZfa67smdRdlHb-17" value="" style="endArrow=classic;html=1;rounded=0;exitX=0.5;exitY=1;exitDx=0;exitDy=0;" edge="1" parent="WIyWlLk6GJQsqaUBKTNV-1" source="8v9jyTJZfa67smdRdlHb-15">
          <mxGeometry width="50" height="50" relative="1" as="geometry">
            <mxPoint x="255" y="370" as="sourcePoint" />
            <mxPoint x="245" y="520" as="targetPoint" />
          </mxGeometry>
        </mxCell>
        <mxCell id="8v9jyTJZfa67smdRdlHb-18" value="" style="endArrow=classic;html=1;rounded=0;exitX=0.5;exitY=1;exitDx=0;exitDy=0;" edge="1" parent="WIyWlLk6GJQsqaUBKTNV-1">
          <mxGeometry width="50" height="50" relative="1" as="geometry">
            <mxPoint x="489.28999999999996" y="440" as="sourcePoint" />
            <mxPoint x="489.28999999999996" y="500" as="targetPoint" />
          </mxGeometry>
        </mxCell>
        <mxCell id="8v9jyTJZfa67smdRdlHb-19" value="" style="endArrow=classic;html=1;rounded=0;exitX=0.5;exitY=1;exitDx=0;exitDy=0;" edge="1" parent="WIyWlLk6GJQsqaUBKTNV-1">
          <mxGeometry width="50" height="50" relative="1" as="geometry">
            <mxPoint x="19.289999999999964" y="435" as="sourcePoint" />
            <mxPoint x="19.289999999999964" y="495" as="targetPoint" />
          </mxGeometry>
        </mxCell>
        <mxCell id="8v9jyTJZfa67smdRdlHb-20" value="Cadastrar produtos" style="rounded=0;whiteSpace=wrap;html=1;" vertex="1" parent="WIyWlLk6GJQsqaUBKTNV-1">
          <mxGeometry x="-40" y="495" width="120" height="40" as="geometry" />
        </mxCell>
        <mxCell id="8v9jyTJZfa67smdRdlHb-21" value="Cadastrar fornecedores" style="rounded=0;whiteSpace=wrap;html=1;" vertex="1" parent="WIyWlLk6GJQsqaUBKTNV-1">
          <mxGeometry x="185" y="520" width="120" height="40" as="geometry" />
        </mxCell>
        <mxCell id="8v9jyTJZfa67smdRdlHb-22" value="Cadastrar Funcionários" style="rounded=0;whiteSpace=wrap;html=1;" vertex="1" parent="WIyWlLk6GJQsqaUBKTNV-1">
          <mxGeometry x="430" y="500" width="120" height="40" as="geometry" />
        </mxCell>
        <mxCell id="8v9jyTJZfa67smdRdlHb-23" value="Cadastro bem sucedido?" style="rhombus;whiteSpace=wrap;html=1;" vertex="1" parent="WIyWlLk6GJQsqaUBKTNV-1">
          <mxGeometry x="-45" y="565" width="130" height="80" as="geometry" />
        </mxCell>
        <mxCell id="8v9jyTJZfa67smdRdlHb-24" value="Cadastro bem sucedido?" style="rhombus;whiteSpace=wrap;html=1;" vertex="1" parent="WIyWlLk6GJQsqaUBKTNV-1">
          <mxGeometry x="180" y="585" width="130" height="80" as="geometry" />
        </mxCell>
        <mxCell id="8v9jyTJZfa67smdRdlHb-25" value="Cadastro bem sucedido?" style="rhombus;whiteSpace=wrap;html=1;" vertex="1" parent="WIyWlLk6GJQsqaUBKTNV-1">
          <mxGeometry x="425" y="570" width="130" height="80" as="geometry" />
        </mxCell>
        <mxCell id="8v9jyTJZfa67smdRdlHb-26" value="" style="endArrow=classic;html=1;rounded=0;exitX=0.5;exitY=1;exitDx=0;exitDy=0;" edge="1" parent="WIyWlLk6GJQsqaUBKTNV-1">
          <mxGeometry width="50" height="50" relative="1" as="geometry">
            <mxPoint x="19.289999999999964" y="535" as="sourcePoint" />
            <mxPoint x="19" y="565" as="targetPoint" />
          </mxGeometry>
        </mxCell>
        <mxCell id="8v9jyTJZfa67smdRdlHb-29" value="" style="endArrow=classic;html=1;rounded=0;exitX=0.5;exitY=1;exitDx=0;exitDy=0;" edge="1" parent="WIyWlLk6GJQsqaUBKTNV-1">
          <mxGeometry width="50" height="50" relative="1" as="geometry">
            <mxPoint x="244.57999999999996" y="560" as="sourcePoint" />
            <mxPoint x="244.29" y="590" as="targetPoint" />
          </mxGeometry>
        </mxCell>
        <mxCell id="8v9jyTJZfa67smdRdlHb-30" value="" style="endArrow=classic;html=1;rounded=0;exitX=0.5;exitY=1;exitDx=0;exitDy=0;" edge="1" parent="WIyWlLk6GJQsqaUBKTNV-1">
          <mxGeometry width="50" height="50" relative="1" as="geometry">
            <mxPoint x="489.58" y="540" as="sourcePoint" />
            <mxPoint x="489.29" y="570" as="targetPoint" />
          </mxGeometry>
        </mxCell>
        <mxCell id="8v9jyTJZfa67smdRdlHb-31" value="" style="endArrow=classic;html=1;rounded=0;exitX=0;exitY=0.5;exitDx=0;exitDy=0;entryX=0;entryY=0.5;entryDx=0;entryDy=0;" edge="1" parent="WIyWlLk6GJQsqaUBKTNV-1" source="8v9jyTJZfa67smdRdlHb-23" target="8v9jyTJZfa67smdRdlHb-14">
          <mxGeometry width="50" height="50" relative="1" as="geometry">
            <mxPoint x="-110" y="555" as="sourcePoint" />
            <mxPoint x="-60" y="505" as="targetPoint" />
            <Array as="points">
              <mxPoint x="-110" y="605" />
              <mxPoint x="-110" y="415" />
            </Array>
          </mxGeometry>
        </mxCell>
        <mxCell id="8v9jyTJZfa67smdRdlHb-32" value="" style="endArrow=classic;html=1;rounded=0;entryX=0;entryY=0.5;entryDx=0;entryDy=0;" edge="1" parent="WIyWlLk6GJQsqaUBKTNV-1" source="8v9jyTJZfa67smdRdlHb-24">
          <mxGeometry width="50" height="50" relative="1" as="geometry">
            <mxPoint x="180" y="630" as="sourcePoint" />
            <mxPoint x="185" y="440" as="targetPoint" />
            <Array as="points">
              <mxPoint x="150" y="630" />
              <mxPoint x="150" y="440" />
            </Array>
          </mxGeometry>
        </mxCell>
        <mxCell id="8v9jyTJZfa67smdRdlHb-33" value="" style="endArrow=classic;html=1;rounded=0;entryX=0;entryY=0.5;entryDx=0;entryDy=0;" edge="1" parent="WIyWlLk6GJQsqaUBKTNV-1">
          <mxGeometry width="50" height="50" relative="1" as="geometry">
            <mxPoint x="430" y="610" as="sourcePoint" />
            <mxPoint x="430" y="420" as="targetPoint" />
            <Array as="points">
              <mxPoint x="395" y="610" />
              <mxPoint x="395" y="420" />
            </Array>
          </mxGeometry>
        </mxCell>
        <mxCell id="8v9jyTJZfa67smdRdlHb-34" value="Sim" style="text;html=1;align=center;verticalAlign=middle;whiteSpace=wrap;rounded=0;" vertex="1" parent="WIyWlLk6GJQsqaUBKTNV-1">
          <mxGeometry x="-100" y="580" width="60" height="30" as="geometry" />
        </mxCell>
        <mxCell id="8v9jyTJZfa67smdRdlHb-35" value="Sim" style="text;html=1;align=center;verticalAlign=middle;whiteSpace=wrap;rounded=0;" vertex="1" parent="WIyWlLk6GJQsqaUBKTNV-1">
          <mxGeometry x="230" y="270" width="60" height="30" as="geometry" />
        </mxCell>
        <mxCell id="8v9jyTJZfa67smdRdlHb-36" value="Sim" style="text;html=1;align=center;verticalAlign=middle;whiteSpace=wrap;rounded=0;" vertex="1" parent="WIyWlLk6GJQsqaUBKTNV-1">
          <mxGeometry x="140" y="600" width="60" height="30" as="geometry" />
        </mxCell>
        <mxCell id="8v9jyTJZfa67smdRdlHb-37" value="Sim" style="text;html=1;align=center;verticalAlign=middle;whiteSpace=wrap;rounded=0;" vertex="1" parent="WIyWlLk6GJQsqaUBKTNV-1">
          <mxGeometry x="390" y="585" width="60" height="30" as="geometry" />
        </mxCell>
        <mxCell id="8v9jyTJZfa67smdRdlHb-38" value="" style="endArrow=classic;html=1;rounded=0;exitX=1;exitY=0.5;exitDx=0;exitDy=0;entryX=1;entryY=0.5;entryDx=0;entryDy=0;" edge="1" parent="WIyWlLk6GJQsqaUBKTNV-1" source="8v9jyTJZfa67smdRdlHb-23" target="8v9jyTJZfa67smdRdlHb-20">
          <mxGeometry width="50" height="50" relative="1" as="geometry">
            <mxPoint x="90" y="600" as="sourcePoint" />
            <mxPoint x="140" y="550" as="targetPoint" />
            <Array as="points">
              <mxPoint x="120" y="605" />
              <mxPoint x="120" y="515" />
            </Array>
          </mxGeometry>
        </mxCell>
        <mxCell id="8v9jyTJZfa67smdRdlHb-39" value="" style="endArrow=classic;html=1;rounded=0;exitX=1;exitY=0.5;exitDx=0;exitDy=0;entryX=1;entryY=0.5;entryDx=0;entryDy=0;" edge="1" parent="WIyWlLk6GJQsqaUBKTNV-1" source="8v9jyTJZfa67smdRdlHb-24" target="8v9jyTJZfa67smdRdlHb-21">
          <mxGeometry width="50" height="50" relative="1" as="geometry">
            <mxPoint x="310" y="630" as="sourcePoint" />
            <mxPoint x="305" y="440" as="targetPoint" />
            <Array as="points">
              <mxPoint x="345" y="625" />
              <mxPoint x="345" y="540" />
            </Array>
          </mxGeometry>
        </mxCell>
        <mxCell id="8v9jyTJZfa67smdRdlHb-40" value="" style="endArrow=classic;html=1;rounded=0;exitX=1;exitY=0.5;exitDx=0;exitDy=0;entryX=1;entryY=0.5;entryDx=0;entryDy=0;" edge="1" parent="WIyWlLk6GJQsqaUBKTNV-1" target="8v9jyTJZfa67smdRdlHb-22">
          <mxGeometry width="50" height="50" relative="1" as="geometry">
            <mxPoint x="555" y="610" as="sourcePoint" />
            <mxPoint x="550" y="420" as="targetPoint" />
            <Array as="points">
              <mxPoint x="590" y="610" />
              <mxPoint x="590" y="520" />
            </Array>
          </mxGeometry>
        </mxCell>
        <mxCell id="8v9jyTJZfa67smdRdlHb-42" value="Não" style="text;html=1;align=center;verticalAlign=middle;whiteSpace=wrap;rounded=0;" vertex="1" parent="WIyWlLk6GJQsqaUBKTNV-1">
          <mxGeometry x="70" y="580" width="60" height="30" as="geometry" />
        </mxCell>
        <mxCell id="8v9jyTJZfa67smdRdlHb-43" value="Não" style="text;html=1;align=center;verticalAlign=middle;whiteSpace=wrap;rounded=0;" vertex="1" parent="WIyWlLk6GJQsqaUBKTNV-1">
          <mxGeometry x="300" y="600" width="60" height="30" as="geometry" />
        </mxCell>
        <mxCell id="8v9jyTJZfa67smdRdlHb-44" value="Não" style="text;html=1;align=center;verticalAlign=middle;whiteSpace=wrap;rounded=0;" vertex="1" parent="WIyWlLk6GJQsqaUBKTNV-1">
          <mxGeometry x="540" y="585" width="60" height="30" as="geometry" />
        </mxCell>
      </root>
    </mxGraphModel>
  </diagram>
</mxfile>
